HIERARCHY
ROOT Hips
{
	OFFSET -0.001795 -0.223333 0.028219
	CHANNELS 6 Xposition Yposition Zposition Zrotation Yrotation Xrotation 
	JOINT LeftUpLeg
	{
		OFFSET 0.069520 -0.091406 -0.006815
		CHANNELS 3 Zrotation Yrotation Xrotation
		JOINT LeftLeg
		{
			OFFSET 0.034277 -0.375199 -0.004496
			CHANNELS 3 Zrotation Yrotation Xrotation
			JOINT LeftFoot
			{
				OFFSET -0.013596 -0.397961 -0.043693
				CHANNELS 3 Zrotation Yrotation Xrotation
				JOINT LeftToe
				{
					OFFSET 0.026358 -0.055791 0.119288
					CHANNELS 3 Zrotation Yrotation Xrotation
					End Site
					{
						OFFSET 0.000000 0.000000 0.000000
					}
				}
			}
		}
	}
	JOINT RightUpLeg
	{
		OFFSET -0.067670 -0.090522 -0.004320
		CHANNELS 3 Zrotation Yrotation Xrotation
		JOINT RightLeg
		{
			OFFSET -0.038290 -0.382569 -0.008850
			CHANNELS 3 Zrotation Yrotation Xrotation
			JOINT RightFoot
			{
				OFFSET 0.015774 -0.398415 -0.042312
				CHANNELS 3 Zrotation Yrotation Xrotation
				JOINT RightToe
				{
					OFFSET -0.025372 -0.048144 0.123348
					CHANNELS 3 Zrotation Yrotation Xrotation
					End Site
					{
						OFFSET 0.000000 0.000000 0.000000
					}
				}
			}
		}
	}
	JOINT Spine
	{
		OFFSET -0.002533 0.108963 -0.026696
		CHANNELS 3 Zrotation Yrotation Xrotation
		JOINT Spine1
		{
			OFFSET 0.005487 0.135180 0.001092
			CHANNELS 3 Zrotation Yrotation Xrotation
			JOINT Spine2
			{
				OFFSET 0.001457 0.052922 0.025425
				CHANNELS 3 Zrotation Yrotation Xrotation
				JOINT Neck
				{
					OFFSET -0.002778 0.213870 -0.042857
					CHANNELS 3 Zrotation Yrotation Xrotation
					JOINT Head
					{
						OFFSET 0.005152 0.064970 0.051349
						CHANNELS 3 Zrotation Yrotation Xrotation
						End Site
						{
							OFFSET 0.000000 0.000000 0.000000
						}
					}
				}
				JOINT LeftShoulder
				{
					OFFSET 0.078845 0.121749 -0.034090
					CHANNELS 3 Zrotation Yrotation Xrotation
					JOINT LeftArm
					{
						OFFSET 0.090977 0.030469 -0.008868
						CHANNELS 3 Zrotation Yrotation Xrotation
						JOINT LeftForeArm
						{
							OFFSET 0.259612 -0.012772 -0.027456
							CHANNELS 3 Zrotation Yrotation Xrotation
							JOINT LeftHand
							{
								OFFSET 0.249234 0.008986 -0.001171
								CHANNELS 3 Zrotation Yrotation Xrotation
								End Site
								{
									OFFSET 0.000000 0.000000 0.000000
								}
							}
						}
					}
				}
				JOINT RightShoulder
				{
					OFFSET -0.081759 0.118833 -0.038615
					CHANNELS 3 Zrotation Yrotation Xrotation
					JOINT RightArm
					{
						OFFSET -0.096012 0.032551 -0.009143
						CHANNELS 3 Zrotation Yrotation Xrotation
						JOINT RightForeArm
						{
							OFFSET -0.253742 -0.013329 -0.021401
							CHANNELS 3 Zrotation Yrotation Xrotation
							JOINT RightHand
							{
								OFFSET -0.255298 0.007772 -0.005559
								CHANNELS 3 Zrotation Yrotation Xrotation
								End Site
								{
									OFFSET 0.000000 0.000000 0.000000
								}
							}
						}
					}
				}
			}
		}
	}
}
MOTION
Frames: 16
Frame Time: 0.050000
0.000000 0.953055 0.000000 -0.443075 -8.713039 0.566355 3.319677 -0.775707 -14.954585 -3.050795 0.415138 6.348008 3.397665 9.518358 14.601863 0.000000 0.000000 0.000000 0.844970 -0.458224 4.419965 1.455599 0.282842 10.554100 -4.897939 -13.061835 4.408317 0.000000 0.000000 0.000000 -4.313154 0.060056 3.702174 4.006053 -0.498434 -23.902823 -0.037164 4.823596 28.069047 1.989654 0.298482 -25.290485 0.000000 0.000000 0.000000 -17.889452 5.977037 -3.962845 -60.700682 -6.605817 -6.448542 -7.819621 -32.781424 4.519133 0.000000 0.000000 0.000000 8.009249 2.091860 0.445170 61.764359 18.854137 1.282769 -5.340008 59.594425 1.078924 0.000000 0.000000 0.000000 
0.003408 0.953242 0.023611 -0.957708 -8.550433 1.501866 3.342476 -0.737216 -13.877104 -3.555313 0.495987 5.455611 3.436026 9.329433 12.620849 0.000000 0.000000 0.000000 0.383428 -0.280364 2.793357 2.399159 0.212997 12.939407 -5.675253 -14.653607 4.298290 0.000000 0.000000 0.000000 -4.541100 0.082107 2.259751 3.766711 -0.442463 -23.784173 0.571376 4.387136 27.725737 1.779629 0.444309 -26.269096 0.000000 0.000000 0.000000 -18.345058 6.914056 -4.500459 -60.819830 -7.082493 -6.149836 -9.055679 -30.455871 4.492478 0.000000 0.000000 0.000000 5.839397 2.150964 0.530904 61.508842 23.891103 4.060808 -18.984938 63.105323 -7.042466 0.000000 0.000000 0.000000 
0.006613 0.954627 0.044681 -0.239307 -8.339708 1.336547 1.833156 -0.835501 -12.110085 -3.387070 0.462062 5.339126 3.293231 8.894037 11.021693 0.000000 0.000000 0.000000 -1.565055 0.000970 0.820640 3.292345 0.165363 16.480297 -5.127558 -13.698855 4.854448 0.000000 0.000000 0.000000 -4.795778 0.090610 1.623439 2.800029 -0.246771 -23.216514 0.098848 4.642000 27.030030 2.987667 -0.264359 -25.210843 0.000000 0.000000 0.000000 -17.711782 5.711209 -3.869052 -60.386501 -7.270541 -5.956323 -7.475206 -29.631446 3.851553 0.000000 0.000000 0.000000 5.831626 3.266411 1.003112 57.315883 30.877504 7.262481 -35.849258 62.387058 -17.167008 0.000000 0.000000 0.000000 
0.009139 0.955706 0.062883 -0.230023 -9.084688 1.402051 1.618704 -0.739004 -10.277418 -3.299810 0.451376 4.749809 3.073972 8.300381 10.004286 0.000000 0.000000 0.000000 -2.579444 0.201301 -1.212067 3.821967 0.198787 19.447169 -5.835827 -15.343000 5.630355 0.000000 0.000000 0.000000 -5.211875 0.107151 0.787617 2.921275 -0.250021 -23.733006 0.272018 5.378354 27.564848 3.444787 -0.541130 -24.687612 0.000000 0.000000 0.000000 -18.073561 5.646387 -3.928681 -60.154915 -8.500346 -5.379211 -6.405845 -28.455667 3.388705 0.000000 0.000000 0.000000 3.443999 4.817641 1.663151 52.151024 38.217498 9.725252 -51.130442 55.687723 -23.328904 0.000000 0.000000 0.000000 
0.010725 0.957748 0.077573 -0.339015 -9.415121 1.335736 0.953525 -0.662153 -8.316903 -2.398757 0.297160 3.552813 3.342614 8.737458 10.013908 0.000000 0.000000 0.000000 -3.444306 0.352816 -2.984694 4.604035 0.055413 20.408458 -5.281108 -14.393329 6.125679 0.000000 0.000000 0.000000 -5.011609 0.100101 0.434401 2.562233 -0.227149 -22.853096 -0.027984 6.186304 26.215408 4.999205 -1.415238 -23.923741 0.000000 0.000000 0.000000 -17.308874 4.314753 -3.288237 -59.903908 -9.226979 -4.863137 -5.072705 -28.013216 2.903068 0.000000 0.000000 0.000000 1.609240 6.605728 2.317806 44.295796 45.390584 10.763021 -56.185338 45.533705 -20.819295 0.000000 0.000000 0.000000 
0.011348 0.959370 0.089600 -0.404295 -9.440016 1.859662 0.476057 -0.618773 -7.265383 -2.271637 0.277780 2.870812 3.368120 8.628530 8.904848 0.000000 0.000000 0.000000 -3.549044 0.443835 -4.219089 3.888632 0.193078 19.293908 -5.388184 -14.458216 5.377771 0.000000 0.000000 0.000000 -4.509995 0.095350 0.087912 2.093950 -0.062966 -23.624098 -0.529688 6.666948 25.973392 6.223874 -2.198671 -22.853026 0.000000 0.000000 0.000000 -16.757547 3.879328 -3.108968 -59.269474 -10.231977 -4.291492 -4.881511 -27.215785 2.701707 0.000000 0.000000 0.000000 -0.826811 8.595197 2.927801 34.334090 50.245413 8.995646 -56.071620 35.184398 -15.548019 0.000000 0.000000 0.000000 
0.010856 0.961023 0.099175 -0.426103 -8.836840 2.117662 0.547715 -0.571612 -6.692293 -1.971784 0.230131 2.313234 3.245595 8.519836 9.252193 0.000000 0.000000 0.000000 -3.536515 0.459720 -4.463389 3.057706 0.216562 15.967419 -5.571529 -15.009725 6.200767 0.000000 0.000000 0.000000 -4.243937 0.089127 0.287737 1.825245 0.026899 -23.881550 -0.761310 7.322944 25.611669 7.466936 -2.741093 -23.204291 0.000000 0.000000 0.000000 -16.082343 2.709100 -2.644690 -58.839659 -10.534768 -4.103303 -5.243124 -27.872239 2.771379 0.000000 0.000000 0.000000 -3.555136 9.366828 3.006945 26.824020 53.938635 7.231167 -55.399202 26.444846 -10.908583 0.000000 0.000000 0.000000 
0.009721 0.961389 0.106707 -0.661950 -8.467684 2.503064 0.674126 -0.552191 -6.522897 -1.605231 0.173114 2.303525 3.244821 8.465871 8.704096 0.000000 0.000000 0.000000 -2.789778 0.425161 -4.102519 1.434274 0.363035 12.132743 -5.751600 -15.494622 6.876073 0.000000 0.000000 0.000000 -3.661288 0.081573 -0.106466 1.335984 0.122043 -23.370473 -0.838554 7.645130 25.236770 8.869878 -3.536842 -22.971946 0.000000 0.000000 0.000000 -15.416903 2.402042 -2.534084 -58.146842 -11.491383 -3.570219 -6.308215 -28.821602 3.088512 0.000000 0.000000 0.000000 -5.941109 10.143372 3.042182 18.644200 55.740056 4.202255 -52.956220 19.777653 -7.319973 0.000000 0.000000 0.000000 
0.008064 0.961116 0.112782 -0.704157 -8.151488 2.758322 0.893158 -0.551744 -6.658654 -1.594921 0.162268 2.972595 3.324925 8.567328 8.286407 0.000000 0.000000 0.000000 -2.726659 0.373993 -3.436315 0.693037 0.326295 8.914523 -5.843275 -15.951797 8.447727 0.000000 0.000000 0.000000 -3.445328 0.082196 -0.348800 0.949969 0.225947 -23.459708 -0.611356 8.270597 25.209181 9.947570 -4.018653 -23.299500 0.000000 0.000000 0.000000 -14.965308 1.426341 -2.150640 -57.760711 -11.679376 -3.471003 -7.350347 -30.450566 3.488680 0.000000 0.000000 0.000000 -7.259940 10.147473 2.884827 13.185263 57.133165 2.112134 -49.183232 15.358738 -4.840336 0.000000 0.000000 0.000000 
0.006661 0.960213 0.117757 -0.966253 -7.929143 3.152399 1.246017 -0.562330 -7.057426 -1.464492 0.129853 3.964198 3.227053 8.184632 6.930596 0.000000 0.000000 0.000000 -2.409199 0.328205 -2.907233 0.106222 0.313217 6.914034 -5.662862 -15.781450 9.431538 0.000000 0.000000 0.000000 -2.990443 0.084109 -0.782241 0.476996 0.330729 -23.179397 -0.397297 8.468837 25.178239 10.904325 -4.399861 -24.132457 0.000000 0.000000 0.000000 -15.119050 1.231552 -2.142847 -56.690022 -12.143200 -3.204579 -8.399111 -31.854559 3.924430 0.000000 0.000000 0.000000 -8.254737 10.265459 2.804420 8.934638 57.008175 0.257481 -45.988219 12.943414 -3.588210 0.000000 0.000000 0.000000 
0.005397 0.959567 0.121956 -1.009138 -7.901773 3.332550 1.519566 -0.560760 -7.254163 -1.551140 0.137918 4.598059 2.986845 7.617100 6.206425 0.000000 0.000000 0.000000 -2.464206 0.319710 -2.769299 -0.104442 0.314740 6.360467 -5.698044 -15.824668 9.329196 0.000000 0.000000 0.000000 -2.844048 0.089026 -1.072627 0.238185 0.385938 -23.038861 -0.319181 8.585214 25.281364 11.314581 -4.632575 -24.112649 0.000000 0.000000 0.000000 -14.571864 0.946667 -1.956590 -56.727078 -12.314315 -3.135671 -8.911228 -32.457881 4.140470 0.000000 0.000000 0.000000 -8.651903 10.183480 2.735153 6.418229 57.317959 -0.857083 -43.646177 11.977619 -3.063576 0.000000 0.000000 0.000000 
0.004333 0.959065 0.125415 -1.228178 -7.663064 3.599436 1.840458 -0.576728 -7.756909 -1.483968 0.116287 5.573289 2.991383 7.516140 5.541627 0.000000 0.000000 0.000000 -2.294556 0.331854 -2.967549 -0.193014 0.321055 6.258918 -5.842842 -16.056290 9.179472 0.000000 0.000000 0.000000 -2.656627 0.089499 -1.132090 0.276544 0.376035 -22.956045 -0.178751 8.279535 25.202889 11.153051 -4.536039 -24.215598 0.000000 0.000000 0.000000 -14.966179 0.804348 -1.908909 -56.365442 -11.919947 -3.293366 -9.877936 -33.001525 4.510757 0.000000 0.000000 0.000000 -8.559370 10.167787 2.754592 4.930471 57.473573 -1.588594 -42.914713 12.514694 -3.242832 0.000000 0.000000 0.000000 
0.003294 0.958989 0.128165 -1.378685 -7.717285 3.677659 2.051883 -0.553634 -7.615982 -1.490197 0.115266 5.952559 3.242423 7.903656 5.076983 0.000000 0.000000 0.000000 -2.175575 0.343800 -3.144119 -0.232123 0.323688 6.195293 -5.866261 -16.064248 8.934711 0.000000 0.000000 0.000000 -2.431939 0.085299 -1.074691 0.491859 0.315162 -22.812004 -0.176283 8.303650 25.195791 11.028016 -4.445525 -24.300635 0.000000 0.000000 0.000000 -14.990001 0.660109 -1.837973 -56.404550 -11.587063 -3.448617 -10.559799 -32.586067 4.645267 0.000000 0.000000 0.000000 -8.230147 9.946530 2.726705 5.270534 57.716241 -1.451049 -44.958129 13.064945 -3.613061 0.000000 0.000000 0.000000 
0.002168 0.959066 0.130197 -1.566102 -7.978604 3.821178 2.458825 -0.523747 -7.574687 -1.500662 0.119258 6.076012 3.464440 8.286628 4.927126 0.000000 0.000000 0.000000 -2.134166 0.369372 -3.456163 -0.302338 0.339024 6.265418 -5.721471 -15.821660 8.964702 0.000000 0.000000 0.000000 -2.258347 0.088167 -1.231664 0.800439 0.221706 -22.527107 -0.157964 7.863200 25.088402 10.971079 -4.464073 -24.489958 0.000000 0.000000 0.000000 -15.216407 0.629982 -1.729610 -56.291373 -10.746632 -3.823273 -10.643099 -32.680252 4.733794 0.000000 0.000000 0.000000 -7.636789 10.020132 2.843948 5.206435 58.099228 -1.657898 -49.021824 13.369372 -4.171799 0.000000 0.000000 0.000000 
0.000971 0.959130 0.131695 -1.590172 -7.906100 3.934849 2.720075 -0.509849 -7.604746 -1.638373 0.141291 6.518990 3.408738 8.122898 4.567262 0.000000 0.000000 0.000000 -2.089609 0.380527 -3.598694 -0.245567 0.319172 6.056452 -5.715651 -15.805893 8.938732 0.000000 0.000000 0.000000 -2.356236 0.090553 -1.233967 1.438025 0.070628 -22.631475 -0.375646 7.304271 25.282217 10.719678 -4.420640 -24.375208 0.000000 0.000000 0.000000 -15.643452 0.896415 -1.803824 -56.176231 -10.272213 -4.054404 -10.658356 -32.475724 4.754250 0.000000 0.000000 0.000000 -6.868204 9.878617 2.898381 5.995617 58.813448 -1.458141 -56.165523 14.133991 -5.296622 0.000000 0.000000 0.000000 
-0.000291 0.959534 0.133009 -1.366186 -8.058219 4.311024 2.730279 -0.513864 -7.657274 -1.735555 0.162115 6.248013 3.464581 8.283363 4.934717 0.000000 0.000000 0.000000 -2.397011 0.441702 -4.265218 -0.038167 0.299887 6.236178 -5.630216 -15.717295 9.209852 0.000000 0.000000 0.000000 -2.606168 0.110964 -1.763264 2.053749 -0.093853 -22.376174 -0.590329 6.511007 25.280236 10.266264 -4.245370 -24.593430 0.000000 0.000000 0.000000 -16.004413 1.417994 -1.928160 -56.558483 -9.337828 -4.501867 -11.011833 -32.251773 4.904851 0.000000 0.000000 0.000000 -6.000535 9.717225 2.968447 7.787826 59.980117 -0.829673 -64.212069 15.536866 -7.124385 0.000000 0.000000 0.000000 
